<?xml version="1.0" encoding="utf-8"?>
<!-- Generator: Adobe Illustrator 16.0.0, SVG Export Plug-In . SVG Version: 6.00 Build 0)  -->
<!DOCTYPE svg PUBLIC "-//W3C//DTD SVG 1.1//EN" "http://www.w3.org/Graphics/SVG/1.1/DTD/svg11.dtd">
<svg version="1.1" id="Layer_1" xmlns="http://www.w3.org/2000/svg" xmlns:xlink="http://www.w3.org/1999/xlink" x="0px" y="0px"
	 width="325.714px" height="274.286px" viewBox="0 0 325.714 274.286" enable-background="new 0 0 325.714 274.286"
	 xml:space="preserve">
<g>
	<text transform="matrix(1 0 0 1 -103.3677 200.0049)" fill="#FFFFFF" font-family="'SourceSansPro-Bold'" font-size="9.3988">GET STARTED</text>
	<g>
		<g>
			<path fill="#E2DFF0" d="M192.861,67.665c-0.723-0.01-2.547-0.135-5.092-0.307c-18.148-1.227-35.581-6.041-51.949-14.246
				c-13.67-6.853-31.892-9.772-41.751-7.164c-0.03,0.008-0.061,0.016-0.092,0.024c-3.611,0.962-7.215-1.174-8.208-4.778
				c-2.345-8.517-13.686-14.56-25.658-14.56c-14.384,0-26.045,8.063-26.045,18.011c0,4.199,2.1,8.063,5.587,11.128
				c9.933,8.729,15.372,21.417,14.161,34.583c-0.324,3.522-0.157,7.005,0.541,10.347c0.342,1.636,0.816,3.211,1.412,4.722
				c3.807,9.651,18.699,21.577,19.61,30.622c6.991,69.383,25.215,94.61,91.957,104.467c66.742,9.856,126.562-20.847,133.61-68.578
				S296.532,69.058,192.861,67.665z"/>
			<path fill="#E2DFF0" d="M110.354,17.211c-1.379-0.144-2.641-0.794-3.596-1.798c-1.995-2.096-5.078-3.44-8.54-3.44
				c-6.015,0-10.891,4.058-10.891,9.063c0,5.005,4.876,9.063,10.891,9.063c2.964,0,5.647-0.988,7.609-2.588
				c0.978-0.798,2.256-1.039,3.511-0.902c2.648,0.289,5.217-1.763,5.217-4.699C114.556,19.469,112.689,17.455,110.354,17.211z"/>
			<ellipse fill="#E2DFF0" cx="120.671" cy="34.78" rx="3.54" ry="2.567"/>
			<ellipse fill="#E2DFF0" cx="253.529" cy="64.536" rx="7.487" ry="4.531"/>
			<circle fill="#E2DFF0" cx="265.243" cy="56.455" r="2.291"/>
		</g>
		<g>
			<path fill="#E2DFF0" d="M49.808,193.019c-0.677-5.011-1.735-12.944-6.639-19.104c-7.65-9.609-21.454-11.348-21.454-11.348
				s-1.457,13.887,6.25,23.451c4.218,5.235,13.01,9.006,17.928,10.585c2.103,0.676,3.522,2.638,3.49,4.846
				c-0.481,33.399-5.637,49.374-5.637,49.374l4.933-0.569C52.914,214.117,50.747,199.975,49.808,193.019z"/>
			<path fill="#E2DFF0" d="M63.87,187.367c1.323-4.129,3.408-10.669,8.472-15.134c7.901-6.965,19.816-6.361,19.816-6.361
				s-0.854,11.943-8.795,18.862c-4.347,3.787-12.336,5.651-16.726,6.246c-1.876,0.255-3.37,1.698-3.674,3.567
				c-4.606,28.271-2.65,42.532-2.65,42.532l-4.08-1.222C58.081,204.715,62.032,193.1,63.87,187.367z"/>
			<path fill="#B1AED7" d="M57.072,165.667c1.08-4.984,2.775-12.879,8.196-18.682c8.458-9.055,22.477-9.704,22.477-9.704
				s0.359,14.081-8.151,23.085c-4.658,4.929-13.799,8.021-18.871,9.217c-2.168,0.511-3.752,2.371-3.896,4.594
				c-2.176,33.625,0.618,60.995,0.618,60.995l-4.916-0.965C51.15,197.533,55.573,172.587,57.072,165.667z"/>
			<path fill="#B1AED7" d="M46.469,218.819c-0.439-2.522-1.389-4.941-2.903-7.007c-0.7-0.954-1.545-1.889-2.525-2.589
				c-4.254-3.04-10.162-2.063-10.162-2.063s0.99,5.905,5.244,8.944c2.502,1.788,5.569,2.187,7.673,2.212
				c1.291,0.016,2.335,1.059,2.307,2.35c-0.146,6.839-1.515,16.088-1.515,16.088l2.681-0.452
				C48.082,229.803,47.131,222.622,46.469,218.819z"/>
			<path fill="#B1AED7" d="M72.355,198.002c0,0-5.518,2.325-7.495,7.165c-1.09,2.67-0.524,6.783-0.25,8.341
				c0.077,0.436,0.092,0.877,0.042,1.316l-2.064,18.082h3.308c-0.808-6.536-0.506-12.449-0.238-15.513
				c0.114-1.305,0.78-2.495,1.843-3.261c1.676-1.209,4.197-3.333,5.191-5.768C74.668,203.525,72.355,198.002,72.355,198.002z"/>
			<path fill="#8686C1" d="M48.434,262.785h13.107c0.422,0,0.843-0.095,1.214-0.297c5.085-2.761,8.545-8.133,8.545-14.326v-12.66
				c0-1.434-1.162-2.596-2.595-2.596H41.27c-1.433,0-2.595,1.162-2.595,2.596v12.66c0,6.193,3.46,11.565,8.545,14.326
				C47.591,262.69,48.012,262.785,48.434,262.785z"/>
			<rect x="38.675" y="240.283" fill="#E2DFF0" width="32.625" height="7.752"/>
			<rect x="38.675" y="240.283" fill="#FEF0F2" width="32.625" height="1.861"/>
		</g>
		
			<rect x="128.488" y="52.695" transform="matrix(0.9829 0.1842 -0.1842 0.9829 16.4767 -22.5614)" fill="#FFFFFF" width="2.354" height="49.404"/>
		<path fill="#FAA41A" d="M164.024,71.03c-9.965-6.446-22.937,3.137-32.663-4.577c-0.443-0.351-0.67-0.911-0.565-1.466l3.589-19.133
			c0.197-1.053,1.396-1.542,2.296-0.959c9.965,6.446,22.938-3.137,32.664,4.577c0.443,0.351,0.67,0.911,0.565,1.466
			c-1.196,6.378-2.393,12.755-3.589,19.133C166.123,71.123,164.925,71.612,164.024,71.03z"/>
		<path fill="#F9B9AF" d="M128.261,90.169c-0.2,0.114-0.62,0.345-0.871,1.052c-0.057,0.159-0.063,0.311-0.045,0.444
			c0.048,0.354-0.101,0.698-0.351,0.953c-0.201,0.204-0.403,0.474-0.51,0.801c-0.153,0.464-0.284,1.154-0.142,1.699
			c0.114,0.435,0.125,0.893,0.028,1.332c-0.058,0.264-0.025,0.548,0.11,0.806c0.306,0.581,1.024,0.804,1.605,0.498
			c0.422-0.222,0.652-0.661,0.63-1.107c-0.012-0.229,0.063-0.455,0.208-0.632c0.019-0.023,0.037-0.049,0.054-0.077
			c0.2-0.334,0.224-0.637,0.184-0.877c-0.054-0.319,0.045-0.641,0.298-0.843c0.231-0.186,0.477-0.471,0.593-0.894
			c0.076-0.281,0.076-0.493,0.037-0.652c-0.074-0.313,0.049-0.63,0.286-0.847c0.226-0.206,0.408-0.497,0.352-0.883
			C130.597,90.053,128.908,89.801,128.261,90.169z"/>
		<path fill="#F9B9AF" d="M121.284,93.433c0.004-0.007,0.007-0.014,0.011-0.021c0.247-0.486,0.555-0.938,0.918-1.345l1.274-1.427
			c0.932-0.871,1.418-1.624,2.491-1.739c1.76-0.188,4.233-0.284,4.313,0.652c0.078,0.915-2.235,1.485-3.558,1.661
			c-0.442,0.059-0.804,0.384-0.903,0.819c0,0,0.651,5.224-2.089,5.423l-0.663,1.895l-3.247-0.529l0.686-3.216
			C120.677,94.852,120.934,94.12,121.284,93.433z"/>
		<path fill="#534CA0" d="M93.669,117.631c0,0-7.476-3.045-10.233,1.838c-2.758,4.883,1.334,17.826-8.619,19.588
			c-9.953,1.761-11.02,11.741-10.23,16.106c2.278,12.591,20.479,25.177,33.083,11.872c12.604-13.306-3.048-22.304-4.216-29.02
			C92.287,131.301,100.123,122.377,93.669,117.631z"/>
		<path fill="#41378C" d="M99.056,140.816c-0.055-5.158,10.302-10.588-0.493-21.098c-0.315-0.308-0.803-0.348-1.142-0.067
			c-0.893,0.735-3.744,1.082-5.182,2.358c-2.693,2.391-6.886,8.994-5.557,12.341c2.837,7.141-1.944,13.155-2.328,21.205
			c-0.308,8.268,13.159,16.478,19.682,14.184c2.333-0.82,3.66-2.483,4.353-4.52c0.529-1.554,0.369-3.28-0.401-4.729
			c-0.004-0.007-0.008-0.015-0.012-0.021C105.457,155.749,99.235,158.024,99.056,140.816z"/>
		<path fill="#F9B9AF" d="M115.96,215.469c3.138-17.217,1.806-31.725,0.6-39.373c-0.539-3.421-3.312-6.048-6.755-6.42l0,0
			c-4.947-0.462-9.199,3.56-8.923,8.521c0.121,2.172,0.42,4.74,1.005,7.719c2.281,11.628,6.219,67.477,6.249,67.491
			c-0.008,0.305-0.023,0.601-0.075,0.801c-0.25,0.954-0.639,1.369-0.942,1.787c-0.833,1.147-0.322,1.927,1.389,3.275
			c1.434,1.131,0.684,3.111,2.143,3.345c2.021,0.322,3.395,0.172,3.566-0.32c0.246-0.705-0.329-0.77-2.039-1.636
			c-1.309-0.662-1.468-4.722-1.48-6.297c-0.003-0.389,0.023-0.772,0.076-1.157L115.96,215.469z"/>
		<path fill="#F9B9AF" d="M98.843,217.872c3.236-9.517,8.87-39.956,7.735-48.546l-7.695-0.643c-3.887-0.175-7.406,2.297-8.53,6.021
			c-1.677,5.56-3.283,14.926-1.779,28.572c0,0,1.16,7.419,0,12.191c-1.053,4.332-7.112,31.287-8.217,36.208
			c-0.228,0.655-0.484,1.379-0.611,1.61c-0.476,0.864-0.845,1.092-1.241,1.423c-1.09,0.908-0.785,1.789,0.542,3.517
			c1.112,1.447-0.1,3.183,1.258,3.767c1.879,0.809,3.248,0.999,3.535,0.564c0.412-0.624-0.13-0.826-1.576-2.085
			c-0.566-0.494-0.516-2.225-0.327-3.816c0.207-1.745,0.729-3.436,1.509-5.01C86.584,245.312,96.15,225.79,98.843,217.872z"/>
		<path fill="#6369B0" d="M114.915,223.339c-8.896,2.31-18.281,2.313-28.161,0c0.85-3.728,1.526-6.669,1.818-7.87
			c1.16-4.772,0-12.191,0-12.191c-1.503-13.646,0.103-23.013,1.78-28.572c1.124-3.724,4.644-6.196,8.53-6.021l7.695,0.643
			c0.002,0.016,0.003,0.033,0.005,0.049l3.222,0.301c3.443,0.372,6.216,2.999,6.755,6.42c1.206,7.648,2.538,22.156-0.6,39.373
			L114.915,223.339z"/>
		<path fill="#555DAA" d="M91.857,202.496c-0.987,2.313-1.923,4.67-2.774,7.061c-0.053-3.355-0.51-6.279-0.51-6.279
			c-1.504-13.646,0.102-23.013,1.779-28.572c1.124-3.725,4.644-6.196,8.53-6.021l2.793,0.233l0,0h0.003l4.899,0.409
			c0.002,0.016,0.003,0.033,0.005,0.049l3.222,0.301c3.443,0.372,6.216,2.999,6.755,6.42c0.194,1.231,0.39,2.657,0.571,4.227
			C104.398,179.847,96.518,191.574,91.857,202.496z"/>
		<path fill="#B1AED7" d="M121.385,120.233c1.169-5.964,2.356-21.507,2.356-21.507c-0.601-0.839-3.124-1.871-3.91-0.834
			l-4.916,21.264c-5.313,6.709-9.67,12.832-11.721,15.775c-0.794,1.141-2.051,1.864-3.436,1.985
			c-2.588,0.228-5.872,0.595-8.572,1.294c-13.102,3.391-7.726,8.226-7.726,8.226c1.612,1.598,2.945,3.46,3.915,5.529
			c1.678,3.581,3.834,8.172,5.099,10.872c0.526,1.709-1.039,6.75-1.595,8.449l-1.165,3.561c-0.174,0.531,0.102,1.108,0.63,1.291
			c5.902,2.042,17.787,2.349,25.387-0.074c0.852-0.271,1.256-1.243,0.833-2.031l-5.63-15.342c-1.495-3.237-1.217-4.021-0.161-5.928
			c0.574-1.039,0.759-2.293,0.417-3.527c-0.194-0.7-0.761-1.8-1.504-3.004c-1.077-1.744-0.936-3.981,0.363-5.567
			C114.395,135.356,120.294,125.797,121.385,120.233z"/>
		<path fill="#F9B9AF" d="M90.046,118.801c-3.921,1.089-4.609,4.287-3.249,9.471c0.509,1.942,1.911,3.617,2.951,4.646
			c0.773,0.765,1.214,1.802,1.197,2.888l-0.051,3.154c0.166,2.865,1.861,3.991,3.906,4.004c1.014,0.006,2.081-0.514,2.753-1.271
			c0.801-0.9,0.504-2.277,0.005-3.374l-0.454-0.77c-0.61-1.036-0.297-2.423,0.767-2.985c0.827-0.437,1.689-1.076,2.214-1.703
			c0.515-0.613,0.828-5.184-1.264-9.932C96.659,118.023,93.968,117.711,90.046,118.801z"/>
		<path fill="#F6958C" d="M98.939,128.902c0.251,0.539-0.062,1.174-0.643,1.303l0,0c-0.482,0.109-0.966-0.178-1.102-0.654
			l-0.87-3.867c-0.032-0.145-0.006-0.295,0.073-0.42s0.204-0.213,0.349-0.246c0.205-0.045,0.416,0.059,0.505,0.25L98.939,128.902z"
			/>
		<path fill="#F9B9AF" d="M88.883,128.588c0.333,1.197,0.724,2.709-0.328,3.001c-1.051,0.292-2.712-1.595-3.045-2.792
			c-0.333-1.197,0.26-1.68,1.312-1.972C87.874,126.533,88.55,127.391,88.883,128.588z"/>
		<path fill="#534CA0" d="M84.875,122.654c3.168-6.141,9.967-8.138,13.412-6.039c1.852,1.129,4.432,5.96,0.319,6.121
			c-1.03,0.041-1.974-0.31-2.814-0.85c-0.28-0.18-0.62-0.24-0.949-0.189l-2.678,0.922c-2.2,0.758-3.38,3.145-2.648,5.353
			l0.263,0.792c0.12,0.402-0.303,0.753-0.677,0.56l-0.159-0.296c-0.414-0.773-1.132-1.336-1.981-1.554
			C85.177,127.016,82.975,126.338,84.875,122.654z"/>
		<path fill="#F9B9AF" d="M91.044,196.332c-0.637-0.956-1.172-1.984-1.464-2.337c-0.122-0.146-0.566-0.44-0.689-0.535
			c-0.361-0.277-0.963-0.648-1.123-1.074l-0.702-1.78c-0.325-0.866-0.989-1.365-1.855-1.041l0,0
			c-0.938,0.352-1.063,1.312-0.606,2.202l0.47,1.254c0.366,0.713,0.376,1.522,0.425,2.322c0.099,1.628,1.119,3.213,2.055,4.409
			c0.588,0.75,1.867,0.864,3.577,0.923c0.84,0.028,2.152-0.178,1.356-0.877c-0.667-0.587-3.249-0.846-3.462-3.398
			c-0.011-0.125-0.015-0.449,0.128-0.508c0.427-0.175,0.864,0.753,1.246,1.142c0.536,0.547,1.094,0.64,1.349,0.465
			C92.019,197.313,91.5,197.015,91.044,196.332z"/>
		<g>
			<path fill="#7F7CBB" d="M153.135,185.61l-13.417,11.195c-6.105,5.094-9.635,12.635-9.635,20.587v45.393l0,0
				c5.181,0,9.381-4.2,9.381-9.381v-5.296c0-11.675,5.172-22.749,14.123-30.244l12.384-10.368L153.135,185.61z"/>
			<path fill="#7F7CBB" d="M201.196,185.61l13.418,11.195c6.105,5.094,9.635,12.635,9.635,20.587v45.393l0,0
				c-5.181,0-9.381-4.2-9.381-9.381v-5.296c0-11.675-5.172-22.749-14.124-30.244l-12.383-10.368L201.196,185.61z"/>
			<path opacity="0.21" fill="#010101" d="M201.196,185.61l13.418,11.195c6.105,5.094,9.635,12.635,9.635,20.587v45.393l0,0
				c-5.181,0-9.381-4.2-9.381-9.381v-5.296c0-11.675-5.172-22.749-14.124-30.244l-12.383-10.368L201.196,185.61z"/>
			<path fill="#6369B0" d="M194.548,239.401h-34.438c-2.403,0-4.267-2.102-3.978-4.487l3.055-25.259h36.284l3.055,25.259
				C198.814,237.3,196.951,239.401,194.548,239.401z"/>
			<path fill="#6369B0" d="M194.548,239.401h-9.46v-29.746h10.383l3.055,25.259C198.814,237.3,196.951,239.401,194.548,239.401z"/>
			<path fill="#FFFFFF" d="M189.394,215.411c6.01,0,11.193-4.243,12.349-10.142c2.738-13.974,4.32-30.47,4.32-48.14
				c0-50.396-22.456-102.965-28.734-102.965c-7.437,0-28.733,52.569-28.733,102.965c0,17.67,1.582,34.166,4.32,48.14
				c1.155,5.898,6.339,10.142,12.349,10.142H189.394z"/>
			<path fill="#FFFFFF" d="M196.89,96.006c-6.968-24.409-15.946-41.841-19.562-41.841c-4.282,0-13.159,17.432-19.921,41.841H196.89z
				"/>
			<path fill="#7F7CBB" d="M195.02,89.77c-6.627-21.087-14.393-35.605-17.691-35.605c-3.907,0-11.642,14.519-18.103,35.605H195.02z"
				/>
			<path fill="#908BC3" d="M162.823,89.77h3.837c3.576-11.67,5.194-19.907,8.161-27.64c0.245-0.639-0.652-1.076-0.999-0.485
				C170.853,66.713,167.213,75.444,162.823,89.77z"/>
			<circle opacity="0.39" fill="#010101" cx="177.123" cy="148.748" r="20.505"/>
			<circle fill="#7F7CBB" cx="177.123" cy="146.589" r="20.505"/>
			<path opacity="0.21" fill="#010101" d="M177.123,126.084c-0.073,0-0.146,0.005-0.219,0.006v40.999
				c0.073,0.001,0.146,0.006,0.219,0.006c11.324,0,20.505-9.181,20.505-20.506C197.628,135.265,188.447,126.084,177.123,126.084z"/>
			<circle fill="#D2EEFC" cx="177.123" cy="146.589" r="14.03"/>
			<path fill="#B1AED7" d="M190.443,249.595h-26.252c-2.42,0-4.381-1.962-4.381-4.382v-5.812h35.014v5.812
				C194.824,247.633,192.863,249.595,190.443,249.595z"/>
			<path fill="#9896CA" d="M190.443,249.595h-3.177v-10.193h7.558v5.812C194.824,247.633,192.863,249.595,190.443,249.595z"/>
			<path fill="#7F7CBB" d="M177.543,262.527l-0.215,0.258l0,0c-2.139-2.382-3.367-5.442-3.469-8.642l-1.884-59.342
				c-0.14-4.418,1.847-8.636,5.342-11.342l0.011-0.009l0,0c3.502,2.711,5.489,6.939,5.341,11.365l-1.986,59.473
				C180.582,257.308,179.477,260.207,177.543,262.527z"/>
			<path opacity="0.21" fill="#010101" d="M177.543,262.527l-0.215,0.258l0,0l-0.011-79.325l0.011-0.009l0,0
				c3.502,2.711,5.489,6.939,5.341,11.365l-1.986,59.473C180.582,257.308,179.477,260.207,177.543,262.527z"/>
			<path fill="#B2E3FA" d="M184.894,134.911c0.013,0.276,0.021,0.554,0.021,0.833c0,10.029-8.131,18.16-18.16,18.16
				c-0.552,0-1.096-0.029-1.634-0.077c2.457,4.065,6.905,6.792,12.002,6.792c7.748,0,14.029-6.281,14.029-14.03
				C191.152,141.716,188.666,137.426,184.894,134.911z"/>
		</g>
		<path fill="#B1AED7" d="M83.69,141.523c1.259-1.297,4.338-1.677,7.146-1.096c2.651,0.55-3.077,19.1-8.419,27.83
			c-0.576,0.942-0.755,2.074-0.456,3.138l5.69,20.157c-0.684,1.382-1.949,1.613-3.237,1.799l-9.579-21.045
			c-0.903-1.985-1.103-4.214-0.562-6.327C75.932,159.511,79.868,145.46,83.69,141.523z"/>
		<g>
			<path fill="#F9B9AF" d="M251.699,250.069l1.511,5.923c0.067,0.222,0.167,0.432,0.296,0.624l1.071,1.59
				c0.68,1.01,0.19,2.39-0.974,2.745c0,0-2.159,0.76-4.386,1.491c-2.279,0.748-5.146,0.123-5.146-0.479
				c0-1.336,1.246-0.275,3.333-1.671c0.699-0.468,1.421-0.957,2.063-1.462c1.796-1.409,0.229-4.979-0.871-6.988
				c-0.396-0.723,0.024-2.526,0.83-2.698l0.521-0.111C250.713,248.871,251.475,249.321,251.699,250.069z"/>
			<path fill="#F9B9AF" d="M250.351,199.333c-0.435-1.095-0.75-2.239-0.967-2.655c-0.091-0.173-0.474-0.563-0.576-0.684
				c-0.303-0.355-0.827-0.856-0.896-1.317l-0.322-1.934c-0.14-0.938-0.699-1.58-1.637-1.44l0,0
				c-1.015,0.152-1.346,1.087-1.078,2.077l0.203,1.357c0.215,0.793,0.051,1.606-0.071,2.418c-0.249,1.653,0.434,3.46,1.117,4.858
				c0.428,0.877,1.686,1.266,3.387,1.69c0.836,0.208,2.194,0.282,1.547-0.589c-0.543-0.73-3.075-1.542-2.743-4.146
				c0.017-0.128,0.082-0.453,0.238-0.481c0.464-0.084,0.704,0.939,1.004,1.411c0.42,0.661,0.96,0.874,1.252,0.754
				C251.117,200.524,250.66,200.114,250.351,199.333z"/>
			<path fill="#B1AED7" d="M255.653,138.944c-2.677,8.435-9.549,24.223-19.558,29.826c-6.846,3.833-23.316,9.357-23.316,9.357
				s-0.55-0.675-0.898-1.294c-0.36-0.64-0.599-1.463-0.599-1.463s20.508-10.519,23.257-13.566
				c2.749-3.049,11.926-22.494,14.671-25.54C252.415,132.709,257.152,134.219,255.653,138.944z"/>
			<polygon fill="#F9B9AF" points="246.733,179.767 253.22,134.189 270.72,131.787 279.821,179.438 			"/>
			<path fill="#F9B9AF" d="M284.309,248.949l1.77,5.877c0.078,0.26,0.195,0.506,0.347,0.731l1.255,1.863
				c0.797,1.183,0.224,2.799-1.141,3.216c0,0-2.53,0.89-5.139,1.747c-2.67,0.877-6.027,0.144-6.027-0.561
				c0-1.565,1.459-0.323,3.903-1.958c0.819-0.548,1.665-1.121,2.419-1.713c2.104-1.651,0.267-5.832-1.021-8.188
				c-0.463-0.847,0.028-1.897,0.973-2.099l0.609-0.131C283.151,247.545,284.044,248.072,284.309,248.949z"/>
			<path fill="#534CA0" d="M266.228,180.208l-19.392-1.628c0,0-6.862,24.625-8.685,35.558c-1.319,7.92,10.677,38.538,10.677,38.538
				c1.188,0.52,2.339-0.14,3.568-0.446c0,0-3.642-27.046-2.402-33.63c1.292-6.869,11.643-20.787,12.308-24.434
				C263.659,186.717,266.228,180.208,266.228,180.208z"/>
			<path fill="#534CA0" d="M262.225,180.454c-2.002,10.744-6.475,26.812,2.141,41.905s17.664,30.786,17.664,30.786
				c1.165,0.048,2.223-0.375,3.205-1.121c0,0-1.511-6.843-3.694-14.833c-2.498-9.14-5.662-19.892-4.76-25.497
				c1.689-10.506,3.63-24.498,3.041-31.292C279.233,173.607,263.277,174.804,262.225,180.454z"/>
			<path fill="#D2EEFC" d="M247.001,180.416c-0.681-0.328-1.058-1.064-0.938-1.81l7.156-44.417l17.5-2.402l9.405,46.901
				c0.177,0.881-0.395,1.737-1.277,1.904c-3.259,0.618-11.117,1.908-19.913,1.908C252.369,182.5,248.68,181.224,247.001,180.416z"/>
			<path fill="#B1AED7" d="M266.787,143.547c2.134,5.773,5.527,17.174,3.58,27.192c-2.745,14.113-6.273,19.819-1.699,23.108
				s13.346-2.199,13.6-4.028c0.253-1.83-1.707-24.305-3.929-34.042s-8.445-23.736-8.445-23.736l-3.246,0.291
				C266.647,132.332,265.77,140.795,266.787,143.547z"/>
			<path fill="#B1AED7" d="M256.29,133.768c0,0-1.357,6.329-0.299,15.753s3.512,38.121-5.063,42.455
				c-2.716,1.372-8.917-5.7-8.917-6.959c0-2.255,2.069-9.802,4.031-16.662c1.575-5.512,3.167-23.928,3.732-30.961
				c0.13-1.616,1.366-2.919,2.973-3.14L256.29,133.768z"/>
			<g>
				<path fill="#41378C" d="M268.967,114.502c0,0-0.331,2.636,1.258,4.564c1.589,1.93-0.72,3.727-1.258,5.039s0.127,3.26-1.38,4.152
					c-1.508,0.891-5.808,1.125-6.49-0.442C260.414,126.247,264.115,113.604,268.967,114.502z"/>
				<path fill="#41378C" d="M251.646,117.975c-0.233,8.626,7.794,10.283,12.463,10.283s4.857-10.342,4.857-14.067
					c0-3.727-3.669-4.313-8.338-4.313c-3.677,0-7.156,2.85-8.591,5.582C251.651,116.197,251.668,117.184,251.646,117.975z"/>
				<path fill="#F9B9AF" d="M260.411,113.208c3.905,0,5.362,2.78,5.437,7.923c0.028,1.927-0.838,3.835-1.535,5.053
					c-0.519,0.906-0.66,1.979-0.365,2.979l0.858,2.902c0.583,2.692-0.696,4.17-2.584,4.706c-0.936,0.266-2.056,0.06-2.872-0.468
					c-0.971-0.628-1.051-1.977-0.87-3.119l0.221-0.828c0.299-1.115-0.348-2.316-1.475-2.563c-3.008-0.658-3.438-3.793-4.244-8.662
					C252.142,116.057,256.505,113.208,260.411,113.208z"/>
				<path fill="#41378C" d="M251.316,110.949l2.239,0.682c0.823,0.25,1.701,0.256,2.527,0.016l4.472-1.297
					c2.709,0,7.183,1.529,6.617,5.438l-0.499,2.766c-0.199,1.104-1.12,1.93-2.238,2.025l0,0c-0.104,0.383-0.45,0.648-0.847,0.648
					c-0.483,0-0.876-0.393-0.876-0.877l0,0c0-1.247-0.875-2.311-2.092-2.584c-1.492-0.334-3.086-0.414-4.754,0.033
					c-3.107,0.836-6.385-1.091-6.695-4.294c-0.02-0.202-0.03-0.409-0.03-0.618C249.141,111.596,250.209,110.645,251.316,110.949z"/>
				<path fill="#F9B9AF" d="M263.695,121.227c0,1.191,0.443,2.158,1.592,2.158c1.147,0,1.885-1.64,1.885-2.832
					s-0.737-1.486-1.885-1.486C264.139,119.066,263.695,120.033,263.695,121.227z"/>
				<path fill="#F6958C" d="M254.133,124.79c-0.122,0.559,0.304,1.087,0.875,1.087l0,0c0.475,0,0.867-0.371,0.895-0.845l0.003-3.804
					c0-0.143-0.057-0.278-0.156-0.379c-0.101-0.1-0.236-0.156-0.378-0.156c-0.202,0-0.377,0.142-0.42,0.34L254.133,124.79z"/>
			</g>
			<path fill="#B2E3FA" d="M262.162,140.613c0.232,0,0.438,0.15,0.508,0.372c0.602,1.914,3.324,10.742,3.933,15.5
				c0.495,3.88-1.073,10.709-1.977,14.181c-0.356,1.374-1.245,2.545-2.467,3.267l-0.614,0.363c-0.522,0.308-1.194,0.131-1.498-0.394
				l-0.501-0.867c-0.38-0.656-0.444-1.446-0.173-2.153c1.058-2.752,3.653-10.061,3.432-14.914
				c-0.078-1.706-1.732-12.096-2.157-14.74c-0.052-0.322,0.197-0.612,0.524-0.612L262.162,140.613z"/>
			<path fill="#555DAA" d="M261.563,139.327c0.232,0.005,0.435,0.16,0.499,0.383c0.559,1.928,3.082,10.814,3.582,15.585
				c0.408,3.89-1.313,10.682-2.295,14.133c-0.388,1.365-1.302,2.516-2.54,3.21l-0.623,0.349c-0.528,0.297-1.197,0.104-1.488-0.427
				l-0.481-0.878c-0.364-0.665-0.411-1.456-0.124-2.157c1.119-2.728,3.879-9.976,3.767-14.832
				c-0.04-1.708-1.459-12.132-1.824-14.785c-0.044-0.324,0.212-0.608,0.538-0.602L261.563,139.327z"/>
			<path fill="#555DAA" d="M260.108,139.591h1.682c0.282,0,0.512-0.229,0.512-0.512v-1.681c0-0.283-0.229-0.513-0.512-0.513
				l-1.518-0.163c-0.283,0-0.676,0.393-0.676,0.676v1.681C259.597,139.361,259.826,139.591,260.108,139.591z"/>
			<path fill="#FFFFFF" d="M264.699,131.706l2.835,0.496c0,0-0.564,4.575-2.825,8.003c-0.161,0.244-0.524,0.243-0.695,0.006
				l-2.012-2.795c-0.231-0.321-0.25-0.75-0.048-1.092L264.699,131.706z"/>
			<path fill="#FFFFFF" d="M258.542,132.915l-2.834,0.933c0,0-0.09,2.828,2.094,6.084c0.164,0.244,0.53,0.234,0.69-0.013
				l1.646-2.556c0.19-0.297,0.214-0.671,0.062-0.988L258.542,132.915z"/>
			<g>
				<path fill="#6D65AD" d="M263.976,168.148v-5.912c0-1.369-1.11-2.48-2.479-2.48h-1.838c-1.17,0-2.215-0.736-2.597-1.842
					c-0.291-0.84-0.631-1.657-1.016-2.448c-0.513-1.054-0.297-2.315,0.531-3.144l1.301-1.301c0.969-0.969,0.969-2.539,0-3.508
					l-4.181-4.18c-0.968-0.969-2.539-0.969-3.507,0l-1.301,1.301c-0.828,0.828-2.09,1.043-3.144,0.53
					c-0.791-0.385-1.608-0.724-2.449-1.015c-1.104-0.382-1.842-1.428-1.842-2.597v-1.838c0-1.37-1.11-2.48-2.479-2.48h-5.912
					c-1.37,0-2.48,1.11-2.48,2.48v1.838c0,1.169-0.736,2.215-1.842,2.597c-0.84,0.291-1.657,0.63-2.449,1.015
					c-1.053,0.513-2.314,0.298-3.143-0.53l-1.301-1.301c-0.969-0.969-2.539-0.969-3.508,0l-4.18,4.18
					c-0.969,0.969-0.969,2.539,0,3.508l1.3,1.301c0.829,0.828,1.044,2.09,0.531,3.144c-0.385,0.791-0.725,1.608-1.015,2.448
					c-0.383,1.105-1.428,1.842-2.597,1.842h-1.838c-1.37,0-2.48,1.111-2.48,2.48v5.912c0,1.369,1.11,2.479,2.48,2.479h1.838
					c1.169,0,2.214,0.737,2.597,1.842c0.29,0.841,0.63,1.658,1.015,2.449c0.513,1.054,0.298,2.315-0.531,3.144l-1.3,1.301
					c-0.969,0.969-0.969,2.539,0,3.508l4.18,4.18c0.969,0.969,2.539,0.969,3.508,0l1.301-1.301c0.828-0.828,2.09-1.043,3.143-0.531
					c0.792,0.386,1.609,0.725,2.449,1.016c1.105,0.382,1.842,1.428,1.842,2.597v1.838c0,1.37,1.11,2.48,2.48,2.48h5.912
					c1.369,0,2.479-1.11,2.479-2.48v-1.838c0-1.169,0.737-2.215,1.842-2.597c0.841-0.291,1.658-0.63,2.449-1.016
					c1.054-0.512,2.315-0.297,3.144,0.531l1.301,1.301c0.968,0.969,2.539,0.969,3.507,0l4.181-4.18c0.969-0.969,0.969-2.539,0-3.508
					l-1.301-1.301c-0.828-0.828-1.044-2.09-0.531-3.144c0.385-0.791,0.725-1.608,1.016-2.449c0.382-1.104,1.427-1.842,2.597-1.842
					h1.838C262.865,170.628,263.976,169.518,263.976,168.148z M237.111,178.609c-8.294,0.654-15.163-6.215-14.51-14.51
					c0.515-6.524,5.801-11.811,12.325-12.325c8.294-0.653,15.164,6.216,14.51,14.51
					C248.923,172.809,243.637,178.096,237.111,178.609z"/>
				<path fill="#7F7CBB" d="M272.251,169.023v-7.662c0-1.775-1.438-3.214-3.214-3.214h-2.382c-1.516,0-2.87-0.955-3.365-2.388
					c-0.377-1.089-0.817-2.147-1.316-3.173c-0.664-1.366-0.385-3.001,0.688-4.074l1.686-1.686c1.256-1.256,1.256-3.291,0-4.546
					l-5.417-5.418c-1.256-1.255-3.291-1.255-4.546,0l-1.686,1.686c-1.073,1.074-2.709,1.353-4.074,0.688
					c-1.025-0.499-2.085-0.938-3.174-1.315c-1.432-0.495-2.387-1.85-2.387-3.365v-2.382c0-1.775-1.439-3.214-3.215-3.214h-7.661
					c-1.775,0-3.214,1.438-3.214,3.214v2.382c0,1.516-0.955,2.87-2.388,3.365c-1.089,0.377-2.148,0.816-3.174,1.315
					c-1.365,0.664-3,0.386-4.074-0.688l-1.685-1.686c-1.256-1.255-3.291-1.255-4.546,0l-5.418,5.418
					c-1.255,1.255-1.255,3.29,0,4.546l1.686,1.686c1.073,1.073,1.353,2.708,0.688,4.074c-0.499,1.025-0.938,2.084-1.315,3.173
					c-0.495,1.433-1.85,2.388-3.365,2.388h-2.382c-1.775,0-3.215,1.438-3.215,3.214v7.662c0,1.774,1.439,3.214,3.215,3.214h2.382
					c1.516,0,2.87,0.955,3.365,2.387c0.377,1.09,0.816,2.148,1.315,3.174c0.664,1.365,0.385,3.001-0.688,4.074l-1.686,1.686
					c-1.255,1.255-1.255,3.291,0,4.546l5.418,5.417c1.255,1.256,3.29,1.256,4.546,0l1.685-1.685
					c1.074-1.074,2.709-1.354,4.074-0.688c1.025,0.499,2.085,0.938,3.174,1.315c1.433,0.495,2.388,1.85,2.388,3.365v2.382
					c0,1.775,1.438,3.214,3.214,3.214h7.661c1.775,0,3.215-1.438,3.215-3.214v-2.382c0-1.516,0.955-2.87,2.387-3.365
					c1.089-0.377,2.148-0.816,3.174-1.315c1.365-0.665,3.001-0.386,4.074,0.688l1.686,1.685c1.255,1.256,3.29,1.256,4.546,0
					l5.417-5.417c1.256-1.255,1.256-3.291,0-4.546l-1.686-1.686c-1.073-1.073-1.353-2.709-0.688-4.074
					c0.499-1.025,0.939-2.084,1.316-3.174c0.495-1.432,1.85-2.387,3.365-2.387h2.382
					C270.813,172.237,272.251,170.798,272.251,169.023z M237.435,182.581c-10.749,0.848-19.652-8.056-18.805-18.805
					c0.667-8.456,7.518-15.307,15.974-15.973c10.749-0.848,19.652,8.055,18.805,18.804
					C252.741,175.063,245.891,181.915,237.435,182.581z"/>
				<circle fill="none" stroke="#41378C" stroke-width="2.9615" stroke-miterlimit="10" cx="236.02" cy="165.192" r="23.26"/>
				<path fill="none" stroke="#534CA0" stroke-width="2.9615" stroke-linecap="round" stroke-miterlimit="10" d="M212.76,165.192
					c0-12.847,10.413-23.26,23.26-23.26"/>
			</g>
			<path fill="#F9B9AF" d="M236.506,142.025c0.644-0.545,0.75-1.497,0.244-2.172l-0.608-0.813c-0.707-0.941-1.23-2.029-1.2-3.206
				c0.021-0.802-0.502-3.059-1.331-2.919c-0.717,0.121,0.045,2.898-0.68,2.83c-0.335-0.031-1.531-2.007-2.416-3.187
				c-0.481-0.642-1.384-0.959-1.54-0.384c-0.099,0.359-0.462,0.422-0.915,0.74c-0.426,0.3-0.197,2.323-0.188,2.853
				c0.011,0.663-0.24,0.864,0.793,2.039c0.785,0.895,4.21,3.125,4.21,3.125l1.513,1.042
				C234.978,142.526,235.889,142.548,236.506,142.025L236.506,142.025z"/>
			<path fill="#B1AED7" d="M236.02,138.864c0,0,14.129,13.565,17.444,14.698c3.316,1.133,12.794-18.521,14.492-20.548
				c2.812-3.357,8.881,0.104,7.833,6.321c-1.321,7.843-20.026,22.951-22.325,23.167S233.61,141.81,233.61,141.81
				C233.788,140.852,234.619,139.868,236.02,138.864z"/>
		</g>
		<path fill="#FFFFFF" d="M151.702,53.328l0.706,2.209c0.071,0.226,0.25,0.401,0.477,0.469l2.22,0.672
			c0.57,0.172,0.695,0.924,0.211,1.271l-1.883,1.354c-0.192,0.138-0.305,0.362-0.3,0.598l0.048,2.319
			c0.012,0.595-0.664,0.946-1.144,0.594l-1.87-1.373c-0.19-0.14-0.438-0.177-0.661-0.1l-2.191,0.762
			c-0.563,0.195-1.104-0.339-0.918-0.904l0.729-2.203c0.074-0.225,0.033-0.471-0.11-0.66l-1.401-1.848
			c-0.359-0.475-0.019-1.156,0.577-1.153l2.319,0.012c0.236,0.001,0.458-0.114,0.594-0.308l1.324-1.904
			C150.769,52.647,151.521,52.761,151.702,53.328z"/>
		<g>
			<path fill="#FFFFFF" d="M150.343,50.311L150.343,50.311c0.382,0,0.769,0.029,1.149,0.086c2.021,0.304,3.801,1.377,5.015,3.021
				s1.715,3.662,1.41,5.683c-0.559,3.712-3.806,6.512-7.554,6.512c-0.382,0-0.769-0.029-1.149-0.086
				c-2.021-0.304-3.801-1.377-5.015-3.021s-1.715-3.662-1.41-5.683C143.348,53.111,146.595,50.312,150.343,50.311 M150.343,49.581
				c-4.076,0-7.65,2.98-8.275,7.133c-0.689,4.576,2.462,8.845,7.038,9.534c0.423,0.063,0.843,0.095,1.258,0.095
				c4.076,0,7.65-2.98,8.275-7.133c0.689-4.576-2.462-8.845-7.038-9.534C151.178,49.612,150.758,49.581,150.343,49.581
				L150.343,49.581z"/>
		</g>
		<path fill="#D2EEFC" d="M298.319,266.027H35.283c-0.896,0-1.621-0.726-1.621-1.621l0,0c0-0.896,0.726-1.621,1.621-1.621h263.036
			c0.896,0,1.621,0.726,1.621,1.621l0,0C299.94,265.302,299.215,266.027,298.319,266.027z"/>
	</g>
</g>
</svg>
